<?xml version="1.0" encoding="utf-8"?>
<!-- Generator: Adobe Illustrator 16.0.0, SVG Export Plug-In . SVG Version: 6.00 Build 0)  -->
<!DOCTYPE svg PUBLIC "-//W3C//DTD SVG 1.1//EN" "http://www.w3.org/Graphics/SVG/1.1/DTD/svg11.dtd">
<svg version="1.1" id="Layer_1" xmlns="http://www.w3.org/2000/svg" xmlns:xlink="http://www.w3.org/1999/xlink" x="0px" y="0px"
	 width="300px" height="300px" viewBox="0 0 300 300" enable-background="new 0 0 300 300" xml:space="preserve">
<g id="Icons">
	<g id="Icons_9_">
		<g>
			<path fill="#E52046" d="M110.978,220.711l114.73-61.019c7.853-4.175,7.854-15.429,0.002-19.607L112.396,79.793
				c-2.285-1.214-4.92-1.594-7.454-1.073l-27.425,5.642c-7.759,1.595-11.399,10.57-6.946,17.12l24.51,36.05
				c2.439,3.589,6.396,5.858,10.726,6.152l91.041,6.191l-93.024,6.921c-3.382,0.251-6.464,2.036-8.367,4.843l-25.13,37.068
				c-4.48,6.607-0.731,15.645,7.111,17.139l29.071,5.542C108.031,221.679,109.609,221.438,110.978,220.711z"/>
		</g>
	</g>
</g>
</svg>
